<?xml version="1.0" encoding="UTF-8" standalone="no"?>
<svg
   xmlns:dc="http://purl.org/dc/elements/1.1/"
   xmlns:cc="http://creativecommons.org/ns#"
   xmlns:rdf="http://www.w3.org/1999/02/22-rdf-syntax-ns#"
   xmlns:svg="http://www.w3.org/2000/svg"
   xmlns="http://www.w3.org/2000/svg"
   xmlns:sodipodi="http://sodipodi.sourceforge.net/DTD/sodipodi-0.dtd"
   xmlns:inkscape="http://www.inkscape.org/namespaces/inkscape"
   viewBox="0 0 16 16"
   id="svg2"
   version="1.1"
   inkscape:version="0.48.4 r9939"
   width="100%"
   height="100%"
   sodipodi:docname="radio-unselected-insensitive.svg">
  <metadata
     id="metadata14">
    <rdf:RDF>
      <cc:Work
         rdf:about="">
        <dc:format>image/svg+xml</dc:format>
        <dc:type
           rdf:resource="http://purl.org/dc/dcmitype/StillImage" />
      </cc:Work>
    </rdf:RDF>
  </metadata>
  <defs
     id="defs12" />
  <sodipodi:namedview
     pagecolor="#ffffff"
     bordercolor="#666666"
     borderopacity="1"
     objecttolerance="10"
     gridtolerance="10"
     guidetolerance="10"
     inkscape:pageopacity="0"
     inkscape:pageshadow="2"
     inkscape:window-width="1440"
     inkscape:window-height="840"
     id="namedview10"
     showgrid="false"
     inkscape:zoom="38.142578"
     inkscape:cx="3.7265605"
     inkscape:cy="8"
     inkscape:window-x="0"
     inkscape:window-y="26"
     inkscape:window-maximized="1"
     inkscape:current-layer="svg2" />
  <g
     transform="translate(0 -1036.3622)"
     id="g4">
    <path
       style="fill:#ebebeb;fill-opacity:1"
       d="m 7.9368654,1036.9834 c 4.1798076,0 7.5682106,3.3036 7.5682106,7.3788 0,4.0752 -3.388403,7.3788 -7.5682106,7.3788 -4.1798073,0 -7.56821074,-3.3036 -7.56821074,-7.3788 0,-4.0752 3.38840344,-7.3788 7.56821074,-7.3788 z"
       id="path6" />
    <path
       style="fill:#c8c8c8;fill-opacity:1"
       d="M 8 0 C 3.581722 8.8817842e-16 -3.006854e-17 3.581722 0 8 C 0 12.418278 3.581722 16 8 16 C 12.418278 16 16 12.418278 16 8 C 16 3.581722 12.418278 -1.8064254e-15 8 0 z M 8 1 C 11.865993 1 15 4.1340068 15 8 C 15 11.865993 11.865993 15 8 15 C 4.1340068 15 1 11.865993 1 8 C 1 4.1340068 4.1340068 1 8 1 z "
       transform="translate(0 1036.3622)"
       id="path8" />
  </g>
</svg>
