/* XPM */
static char * close_prelight_xpm[] = {
"16 16 29 1",
" 	c None",
".	c #FFFFFF",
"+	c #DC6758",
"@	c #B06056",
"#	c #EFEEEE",
"$	c #F6F6F6",
"%	c #CA968F",
"&	c #D95E4E",
"*	c #BB7269",
"=	c #D64937",
"-	c #CC4736",
";	c #F9F8F8",
">	c #F5F3F3",
",	c #BB766D",
"'	c #F9F9F9",
")	c #CE4736",
"!	c #C94636",
"~	c #F0EEEE",
"{	c #F6F5F5",
"]	c #EDEAEA",
"^	c #C84636",
"/	c #BB766C",
"(	c #CA4736",
"_	c #EEECEC",
":	c #F3F2F2",
"<	c #B0635A",
"[	c #B1655B",
"}	c #BB7A71",
"|	c #DD6D5E",
"................",
"................",
"................",
"................",
"....+@#..$%&....",
"....*=-;>-=,....",
"....')=!!=-~....",
".....{)==!].....",
".....{)==!].....",
"....$)=^^=-{....",
"..../=(_:(=<....",
"....&[....}|....",
"................",
"................",
"................",
"................"};
