/* XPM */
static char * close_pressed_xpm[] = {
"16 16 22 1",
" 	c None",
".	c #FFFFFF",
"+	c #C04949",
"@	c #D07979",
"#	c #DB9A9A",
"$	c #F2D9D9",
"%	c #F4DFDF",
"&	c #CE7171",
"*	c #C04B4B",
"=	c #D78E8E",
"-	c #CC6C6C",
";	c #C14E4E",
">	c #C86363",
",	c #C45555",
"'	c #CF7474",
")	c #C96666",
"!	c #C75E5E",
"~	c #D38080",
"{	c #C25151",
"]	c #C55858",
"^	c #CC6D6D",
"/	c #C86161",
"................",
"................",
"................",
"................",
"....+@....#+....",
"....@+@$%&*=....",
".....-;>,;'.....",
"......);;>......",
"......,+;!......",
".....~+{];=.....",
"....#*>..#;^....",
"....;#..../+....",
"................",
"................",
"................",
"................"};
