/* XPM */
static char * close_active_xpm[] = {
"16 16 8 1",
" 	c None",
".	c #FFFFFF",
"+	c #444444",
"@	c #DFDFDF",
"#	c #CECECE",
"$	c #E3E3E3",
"%	c #EBEBEB",
"&	c #474747",
"................",
"................",
"................",
"................",
"....++@...++....",
"....+++#$+++....",
".....++++++.....",
".....%+++&%.....",
".....%+++&%.....",
".....++++++.....",
"....+++%%+++....",
"....++....++....",
"................",
"................",
"................",
"................"};
