/* XPM */
static char * close_inactive_xpm[] = {
"16 16 27 1",
" 	c None",
".	c #FFFFFF",
"+	c #B3AFAE",
"@	c #BAB8B8",
"#	c #BBB8B8",
"$	c #BAB7B6",
"%	c #BFBDBD",
"&	c #ADA9A8",
"*	c #B4B0B0",
"=	c #F5F5F5",
"-	c #F4F4F4",
";	c #AEAAAA",
">	c #B7B4B4",
",	c #B5B2B1",
"'	c #A39F9D",
")	c #F8F8F8",
"!	c #A6A3A2",
"~	c #F2F2F2",
"{	c #F6F6F6",
"]	c #A29F9E",
"^	c #A8A5A4",
"/	c #B7B6B6",
"(	c #ACAAA9",
"_	c #B2B0AF",
":	c #B6B3B3",
"<	c #C2C1C1",
"[	c #B6B4B3",
"................",
"................",
"................",
"................",
"....+@....#$....",
"....%&*=-;&>....",
".....,&''&*.....",
".....)!&&'=.....",
".....~!&&'{.....",
".....,&]]&^.....",
"..../&({=_&:....",
"....$<....[,....",
"................",
"................",
"................",
"................"};
