/* XPM */
static char * hide_inactive_xpm[] = {
"16 16 3 1",
" 	c None",
".	c #FFFFFF",
"+	c #ADA9A8",
"................",
"................",
"................",
"................",
"................",
"................",
"................",
"....++++++++....",
"....++++++++....",
"................",
"................",
"................",
"................",
"................",
"................",
"................"};
