/* XPM */
static char * hide_active_xpm[] = {
"16 16 3 1",
" 	c None",
".	c #FFFFFF",
"+	c #444444",
"................",
"................",
"................",
"................",
"................",
"................",
"................",
"....++++++++....",
"....++++++++....",
"................",
"................",
"................",
"................",
"................",
"................",
"................"};
