/* XPM */
static char * hide_pressed_xpm[] = {
"16 16 3 1",
" 	c None",
".	c #FFFFFF",
"+	c #B44335",
"................",
"................",
"................",
"................",
"................",
"................",
"................",
"....++++++++....",
"....++++++++....",
"................",
"................",
"................",
"................",
"................",
"................",
"................"};
